<?xml version="1.0" encoding="UTF-8"?>
<svg width="12px" height="15px" viewBox="0 0 12 15" version="1.1" xmlns="http://www.w3.org/2000/svg"
     xmlns:xlink="http://www.w3.org/1999/xlink">
    <title>icon-icon-not-resolved</title>
    <defs>
        <rect id="path-1" x="0" y="0" width="10" height="13" rx="1"/>
        <mask id="mask-2" maskContentUnits="userSpaceOnUse" maskUnits="objectBoundingBox" x="-1" y="-1" width="12"
              height="15">
            <rect x="-1" y="-1" width="12" height="15" fill="white"/>
            <use xlink:href="#path-1" fill="black"/>
        </mask>
    </defs>
    <g id="Page-1" stroke="none" stroke-width="1" fill="none" fill-rule="evenodd">
        <g id="icon-icon-not-resolved" transform="translate(1.000000, 1.000000)">
            <use id="Rounded-Rect" stroke="#979797" mask="url(#mask-2)" stroke-width="2" xlink:href="#path-1"/>
            <path d="M4.40400696,8.2734375 L5.71357727,8.2734375 L5.71357727,9.54345703 L4.40400696,9.54345703 L4.40400696,8.2734375 Z M3.67451477,3.33398438 C4.02021962,3.11132701 4.44502006,3 4.94892883,3 C5.61104152,3 6.16108485,3.15820154 6.59907532,3.47460938 C7.03706579,3.79101721 7.25605774,4.25976252 7.25605774,4.88085938 C7.25605774,5.26172065 7.16084385,5.58251823 6.97041321,5.84326172 C6.85908453,6.00146563 6.64521948,6.20361205 6.32881165,6.44970703 L6.01679993,6.69140625 C5.8468772,6.82324285 5.73408536,6.9770499 5.67842102,7.15283203 C5.64326459,7.26416071 5.62422182,7.43701055 5.62129211,7.67138672 L4.43476868,7.67138672 C4.45234689,7.17626706 4.49922142,6.83422946 4.57539368,6.64526367 C4.65156593,6.45629788 4.84785303,6.23877076 5.16426086,5.99267578 L5.48506165,5.7421875 C5.59053092,5.66308554 5.67549101,5.57666062 5.73994446,5.48291016 C5.85713254,5.32177654 5.91572571,5.14453222 5.91572571,4.95117188 C5.91572571,4.72851451 5.85054081,4.52563568 5.72016907,4.3425293 C5.58979732,4.15942291 5.35176259,4.06787109 5.00605774,4.06787109 C4.66621229,4.06787109 4.4252479,4.18066293 4.28315735,4.40625 C4.14106679,4.63183707 4.07002258,4.86620972 4.07002258,5.109375 L2.80000305,5.109375 C2.83515948,4.27440989 3.12666047,3.68261893 3.67451477,3.33398438 Z"
                  id="?" fill="#FF8700"/>
        </g>
    </g>
</svg>