<?xml version="1.0" encoding="UTF-8" standalone="no"?>
<!DOCTYPE svg PUBLIC "-//W3C//DTD SVG 1.1//EN" "http://www.w3.org/Graphics/SVG/1.1/DTD/svg11.dtd">
<svg width="100%" height="100%" viewBox="0 0 44 44" version="1.1" xmlns="http://www.w3.org/2000/svg" xmlns:xlink="http://www.w3.org/1999/xlink" xml:space="preserve" xmlns:serif="http://www.serif.com/" style="fill-rule:evenodd;clip-rule:evenodd;stroke-linejoin:round;stroke-miterlimit:2;">
    <g id="layer1" transform="matrix(0.400744,0,0,0.395562,84.3495,-104.953)">
        <path id="path5775" d="M-129.969,340.071C-131.47,340.514 -132.666,340.666 -134.231,340.666C-147.071,340.666 -165.931,295.796 -165.931,280.862C-165.931,275.361 -164.625,273.527 -162.789,271.956C-178.506,273.789 -197.369,279.554 -203.396,286.889C-204.705,288.724 -205.491,291.605 -205.491,295.271C-205.491,318.589 -180.604,371.505 -163.05,371.505C-154.93,371.505 -141.234,358.145 -129.969,340.071" style="fill:rgb(255,135,0);fill-rule:nonzero;"/>
        <path id="path5779" d="M-138.165,270.383C-121.922,270.383 -105.677,273.003 -105.677,282.172C-105.677,300.773 -117.466,323.303 -123.492,323.303C-134.232,323.303 -147.593,293.439 -147.593,278.505C-147.593,271.694 -144.973,270.383 -138.165,270.383" style="fill:rgb(255,135,0);fill-rule:nonzero;"/>
    </g>
</svg>
