<?xml version="1.0" encoding="utf-8"?>
<!-- Generator: Adobe Illustrator 19.1.1, SVG Export Plug-In . SVG Version: 6.00 Build 0)  -->
<svg version="1.1" xmlns="http://www.w3.org/2000/svg" xmlns:xlink="http://www.w3.org/1999/xlink" x="0px" y="0px"
	 viewBox="0 0 16 16" enable-background="new 0 0 16 16" xml:space="preserve">
<path fill="#666666" d="M12.053,11.026c-0.238,0.07-0.427,0.095-0.674,0.095c-2.033,0-5.017-7.1-5.017-9.462
	c0-0.87,0.207-1.16,0.497-1.41C4.373,0.54,1.39,1.452,0.435,2.613c-0.207,0.29-0.332,0.746-0.332,1.326C0.103,7.628,4.04,16,6.82,16
	C8.103,16,10.27,13.886,12.053,11.026 M10.756,0c2.57,0,5.14,0.415,5.14,1.865c0,2.943-1.865,6.508-2.818,6.508
	c-1.7,0-3.814-4.725-3.814-7.088C9.264,0.207,9.68,0,10.756,0"/>
</svg>
