<?xml version="1.0" encoding="UTF-8"?>
<svg width="16px" height="13px" viewBox="0 0 16 13" version="1.1" xmlns="http://www.w3.org/2000/svg">
    <title>Icon-Route (Path)</title>
    <defs>
        <radialGradient cx="50%" cy="50%" fx="50%" fy="50%" r="50%" id="radialGradient-1">
            <stop stop-color="#FFF6E7" offset="0%"/>
            <stop stop-color="#FF8700" offset="100%"/>
        </radialGradient>
    </defs>
    <g id="Page-1" stroke="none" stroke-width="1" fill="none" fill-rule="evenodd">
        <g id="Icon-Route-(Path)">
            <circle id="Orange-Circle" fill="url(#radialGradient-1)" cx="6" cy="7" r="6"/>
            <path d="M5.01249695,5.2421875 L5.01249695,6.7890625 L6.3757782,6.7890625 C6.64661289,6.7890625 6.84973585,6.75781281 6.9851532,6.6953125 C7.22473773,6.58593695 7.3445282,6.36979328 7.3445282,6.046875 C7.3445282,5.69791492 7.22864394,5.46354227 6.99687195,5.34375 C6.86666296,5.27604133 6.67135242,5.2421875 6.41093445,5.2421875 L5.01249695,5.2421875 Z M7.59257507,4.390625 C7.81002408,4.48177129 7.99426703,4.61588453 8.14530945,4.79296875 C8.27031007,4.93880281 8.36926742,5.10025953 8.44218445,5.27734375 C8.51510148,5.45442797 8.55155945,5.65624887 8.55155945,5.8828125 C8.55155945,6.15625137 8.48254972,6.42512889 8.3445282,6.68945312 C8.20650667,6.95377736 7.97864437,7.14062445 7.66093445,7.25 C7.92656078,7.35677137 8.11470994,7.50846256 8.22538757,7.70507812 C8.33606521,7.90169369 8.3914032,8.2018209 8.3914032,8.60546875 L8.3914032,8.9921875 C8.3914032,9.25520965 8.40181976,9.43359328 8.4226532,9.52734375 C8.45390335,9.67578199 8.52681929,9.7851559 8.6414032,9.85546875 L8.6414032,10 L7.31718445,10 C7.28072593,9.8723952 7.25468453,9.76953164 7.23905945,9.69140625 C7.20780929,9.52994711 7.19088238,9.36458418 7.1882782,9.1953125 L7.1804657,8.66015625 C7.17525734,8.29296691 7.10820072,8.0481777 6.97929382,7.92578125 C6.85038693,7.8033848 6.60885289,7.7421875 6.25468445,7.7421875 L5.01249695,7.7421875 L5.01249695,10 L3.8367157,10 L3.8367157,4.2421875 L6.66093445,4.2421875 C7.0645823,4.25000004 7.37512607,4.29947871 7.59257507,4.390625 Z" id="R" fill="#6B6B6B"/>
            <g id="TYPO3-Drop" transform="translate(9.000000, 0.000000)" fill="#999999">
                <path d="M5.2731875,4.823875 C5.1690625,4.8545 5.086375,4.8654375 4.9783125,4.8654375 C4.088875,4.8654375 2.783375,1.7591875 2.783375,0.7258125 C2.783375,0.3451875 2.8739375,0.2183125 3.0008125,0.1089375 C1.9131875,0.23625 0.608125,0.63525 0.1903125,1.1431875 C0.09975,1.2700625 0.0450625,1.4695625 0.0450625,1.7233125 C0.0450625,3.33725 1.7675,7 2.98375,7 C3.5450625,7 4.493125,6.075125 5.2731875,4.823875 M4.70575,0 C5.830125,0 6.9545,0.1815625 6.9545,0.8159375 C6.9545,2.1035 6.1385625,3.6631875 5.721625,3.6631875 C4.977875,3.6631875 4.053,1.596 4.053,0.5621875 C4.053,0.0905625 4.235,0 4.70575,0" id="Shape"/>
            </g>
        </g>
    </g>
</svg>
